<svg viewBox="0 0 1978 434" fill="none" xmlns="http://www.w3.org/2000/svg">
<g clip-path="url(#clip0_321_40)">
<path d="M400 0H0V217H400V0Z" fill="#FF7700"/>
<path d="M400 217H0V434H400V217Z" fill="#515254"/>
<path d="M311.2 354.626V295.288C311.2 266.379 289.14 235.155 256.267 217.53C239.758 208.657 160.388 208.609 143.927 217.409C110.933 235.034 88.7759 266.331 88.7759 295.288V354.794C88.7759 354.794 88.7759 354.818 88.7759 354.843C88.7759 373.384 138.57 388.429 200 388.429C261.43 388.429 311.224 373.384 311.224 354.843C311.224 354.77 311.224 354.722 311.224 354.65L311.2 354.626Z" fill="#FF7700"/>
<path d="M311.2 79.2285V138.735C311.2 167.813 288.897 199.205 255.734 216.806C239.346 225.486 162.425 225.535 144.849 216.758C111.225 200.001 88.8003 166.872 88.8003 138.735V79.2285H311.225H311.2Z" fill="#EFDFC7"/>
<path d="M200 112.767C261.428 112.767 311.224 97.73 311.224 79.1805C311.224 60.6311 261.428 45.5938 200 45.5938C138.573 45.5938 88.7759 60.6311 88.7759 79.1805C88.7759 97.73 138.573 112.767 200 112.767Z" fill="white"/>
</g>
<g clip-path="url(#clip1_321_40)">
<path d="M493.613 42H506.456L525.069 65.9757H509.673L500.048 52.6323L490.821 65.9757H475L493.613 42ZM485.344 73.0993H514.858V191.117H485.344V73.0993Z" fill="#FF7700"/>
<path d="M541.076 73.0996H566.363L616.592 143.645V73.0996H646.293V191.118H620.82L570.591 120.759V191.118H541.076V73.0996Z" fill="#FF7700"/>
<path d="M729.971 73.0996H788.071C801.631 73.0996 811.922 76.9804 818.968 84.7419C825.988 92.5035 829.498 102.684 829.498 115.256C829.498 123.31 827.769 130.461 824.366 136.707C820.936 142.953 816.017 147.791 809.608 151.273C803.2 154.755 795.755 156.483 787.326 156.483H759.46V191.118H729.945V73.0996H729.971ZM780.758 133.757C786.874 133.757 791.501 132.082 794.692 128.706C797.856 125.357 799.451 120.785 799.451 115.044C799.451 108.824 797.989 104.066 795.064 100.743C792.139 97.4475 787.672 95.7995 781.689 95.7995H759.513V133.73H780.785L780.758 133.757Z" fill="#FF7700"/>
<path d="M848.403 73.0996H907.433C920.994 73.0996 931.178 76.6614 937.958 83.8116C944.739 90.9618 948.142 100.876 948.142 113.582C948.142 121.53 946.148 128.494 942.186 134.474C938.224 140.455 932.694 144.92 925.594 147.844C927.19 149.2 928.492 150.662 929.529 152.23C930.566 153.825 931.763 156.137 933.093 159.194L947.026 191.091H916.234L903.046 161.028C901.956 158.344 900.546 156.456 898.818 155.34C897.09 154.25 894.67 153.692 891.479 153.692H877.918V191.064H848.403V73.0996ZM899.722 130.992C905.598 130.992 910.119 129.53 913.283 126.606C916.447 123.683 918.043 119.35 918.043 113.582C918.043 101.727 912.352 95.7995 900.998 95.7995H877.918V130.992H899.722Z" fill="#FF7700"/>
<path d="M970.478 73.0996H999.993V191.118H970.478V73.0996Z" fill="#FF7700"/>
<path d="M1026.02 73.0996H1055.17L1087.23 138.515L1119.14 73.0996H1148.1V191.118H1118.58V123.31L1095.29 170.969H1078.97L1055.51 123.31V191.118H1026V73.0996H1026.02Z" fill="#FF7700"/>
<path d="M1187.8 180.751C1178.07 172.644 1173.23 161.108 1173.23 146.196V73.0996H1202.74V143.459C1202.74 151.645 1204.84 157.759 1209.07 161.799C1213.3 165.839 1219.44 167.833 1227.5 167.833C1235.55 167.833 1241.7 165.813 1245.92 161.799C1250.15 157.759 1252.25 151.645 1252.25 143.459V73.0996H1281.77V146.196C1281.77 161.108 1276.9 172.617 1267.2 180.751C1257.49 188.885 1244.25 192.952 1227.5 192.952C1210.75 192.952 1197.53 188.885 1187.8 180.751Z" fill="#FF7700"/>
<path d="M1306.84 73.0996H1336.36V168.391H1392.09V191.118H1306.84V73.0996Z" fill="#FF7700"/>
<path d="M1468.43 73.0996H1527.46C1541.02 73.0996 1551.2 76.6614 1557.98 83.8116C1564.76 90.9618 1568.17 100.876 1568.17 113.582C1568.17 121.53 1566.17 128.494 1562.21 134.474C1558.25 140.455 1552.72 144.92 1545.62 147.844C1547.22 149.2 1548.52 150.662 1549.56 152.23C1550.59 153.825 1551.79 156.137 1553.12 159.194L1567.05 191.091H1536.26L1523.07 161.028C1521.98 158.344 1520.57 156.456 1518.84 155.34C1517.12 154.25 1514.7 153.692 1511.51 153.692H1497.94V191.064H1468.43V73.0996ZM1519.75 130.992C1525.62 130.992 1530.14 129.53 1533.31 126.606C1536.47 123.683 1538.07 119.35 1538.07 113.582C1538.07 101.727 1532.38 95.7995 1521.02 95.7995H1497.94V130.992H1519.75Z" fill="#FF7700"/>
<path d="M1623.69 73.0993H1655.6L1700.69 191.117H1669.9L1659.27 164.377H1619.86L1609.41 191.117H1578.62L1623.71 73.0993H1623.69ZM1633.05 42H1645.89L1664.5 65.9757H1649.11L1639.48 52.6323L1630.26 65.9757H1614.46L1633.07 42H1633.05ZM1655.22 142.555L1639.46 101.514L1623.87 142.555H1655.22Z" fill="#FF7700"/>
<path d="M1723.06 73.0996H1748.34L1798.57 143.645V73.0996H1828.27V191.118H1802.8L1752.57 120.759V191.118H1723.06V73.0996Z" fill="#FF7700"/>
<path d="M1854.3 73.0996H1905.44C1923.89 73.0996 1937.72 77.8044 1946.94 87.2139C1956.17 96.6235 1960.77 111.828 1960.77 132.853C1960.77 152.762 1956.14 167.461 1946.94 176.924C1937.72 186.386 1923.86 191.118 1905.44 191.118H1854.3V73.0996ZM1901.42 168.391C1908.25 168.391 1913.76 167.408 1917.91 165.467C1922.05 163.527 1925.25 159.965 1927.45 154.835C1929.66 149.705 1930.75 142.369 1930.75 132.853C1930.75 123.337 1929.74 115.708 1927.72 110.392C1925.7 105.076 1922.59 101.328 1918.36 99.122C1914.13 96.9158 1908.49 95.826 1901.39 95.826H1883.79V168.391H1901.39H1901.42Z" fill="#FF7700"/>
<path d="M1960.42 179.927H1978L1965.16 207.252H1950.4L1960.42 179.927Z" fill="#FF7700"/>
<path d="M485.344 268.174H544.374C557.934 268.174 568.118 271.736 574.899 278.886C581.679 286.036 585.083 295.951 585.083 308.657C585.083 316.604 583.089 323.568 579.127 329.549C575.165 335.53 569.634 339.995 562.535 342.919C564.13 344.275 565.433 345.737 566.47 347.305C567.507 348.9 568.703 351.212 570.033 354.269L583.966 386.166H553.175L539.986 356.103C538.896 353.418 537.487 351.531 535.758 350.415C534.057 349.325 531.61 348.767 528.42 348.767H514.859V386.139H485.344V268.121V268.174ZM536.689 326.067C542.565 326.067 547.086 324.605 550.25 321.681C553.414 318.757 555.01 314.425 555.01 308.657C555.01 296.802 549.319 290.874 537.965 290.874H514.859V326.067H536.662H536.689Z" fill="#FF7700"/>
<path d="M615.874 373.168C605.982 363.28 601.037 348.129 601.037 327.715C601.037 307.302 605.929 290.768 615.714 280.987C625.499 271.205 640.204 266.341 659.88 266.341C679.557 266.341 694.128 271.232 703.967 280.987C713.805 290.768 718.724 306.345 718.724 327.715C718.724 349.086 713.778 363.254 703.887 373.168C693.995 383.056 679.318 388.027 659.88 388.027C640.443 388.027 625.792 383.083 615.874 373.168ZM681.578 354.376C686.151 348.688 688.465 339.81 688.465 327.715C688.465 314.638 686.204 305.361 681.684 299.859C677.164 294.357 669.878 291.619 659.88 291.619C649.882 291.619 642.411 294.357 637.89 299.859C633.37 305.361 631.11 314.638 631.11 327.715C631.11 339.81 633.397 348.688 637.997 354.376C642.57 360.064 649.882 362.908 659.907 362.908C669.931 362.908 677.057 360.064 681.631 354.376H681.578Z" fill="#FF7700"/>
<path d="M734.652 268.175H763.794L795.862 333.59L827.77 268.175H856.726V386.193H827.211V318.386L803.919 366.045H787.592L764.14 318.386V386.193H734.625V268.175H734.652Z" fill="#FF7700"/>
<path d="M919.612 268.175H951.52L996.616 386.193H965.825L955.189 359.452H915.783L905.333 386.193H874.542L919.638 268.175H919.612ZM928.971 237.075H941.814L960.427 261.051H945.032L935.406 247.707L926.179 261.051H910.385L928.998 237.075H928.971ZM951.147 337.603L935.379 296.563L919.798 337.603H951.147Z" fill="#FF7700"/>
<path d="M1018.98 268.175H1044.27L1094.49 338.72V268.175H1124.2V386.193H1098.72L1048.49 315.834V386.193H1018.98V268.175Z" fill="#FF7700"/>
<path d="M1150.23 268.175H1179.74V386.193H1150.23V268.175Z" fill="#FF7700"/>
<path d="M1247.17 268.175H1279.08L1324.18 386.193H1293.39L1282.75 359.453H1243.34L1232.89 386.193H1202.1L1247.2 268.175H1247.17ZM1278.71 337.603L1262.94 296.563L1247.36 337.603H1278.71Z" fill="#FF7700"/>
</g>
<defs>
<clipPath id="clip0_321_40">
<rect width="400" height="434" fill="white"/>
</clipPath>
<clipPath id="clip1_321_40">
<rect width="1503" height="346" fill="white" transform="translate(475 42)"/>
</clipPath>
</defs>
</svg>
